<svg width="751" height="702" viewBox="0 0 751 702" fill="none" xmlns="http://www.w3.org/2000/svg">
<g clip-path="url(#clip0_84:262)">
<path d="M490.759 560.619L498.119 577.14C492.136 576.187 486.572 581.302 486.447 587.87C486.322 594.439 491.659 601.273 497.642 602.207C496.499 607.307 491.564 609.555 487.28 611.616C482.997 613.678 478.38 617.096 478.699 622.53C478.955 626.894 482.559 630.746 486.387 632.295C490.215 633.844 494.231 633.606 498.108 633.346C492.234 639.497 491.661 651.06 496.82 659.355C501.98 667.65 512.283 671.734 519.998 668.541C514.547 675.328 515.731 687.758 522.496 694.763C529.316 701.825 539.199 702.508 547.84 701.764C569.843 699.902 590.808 691.585 608.113 677.855C614.718 672.601 620.888 666.422 624.656 658.362C628.424 650.303 629.534 640.098 626.024 630.926C626.971 642.416 638.46 651.49 648.795 651.998C659.13 652.506 668.154 646.679 675.822 640.034C686.02 631.197 695.462 618.81 694.062 603.526C693.369 595.96 690.068 588.683 686.83 581.635L680.552 567.97C678.018 562.453 675.426 556.843 671.611 552.214C667.797 547.584 662.502 544 657.204 544.035C658.416 538.495 659.632 532.748 658.617 526.862C657.602 520.976 653.715 514.881 648.428 513.503C641.699 511.748 635.997 517.964 629.231 517.378C622.72 516.814 617.339 510.273 611.016 507.681C608.413 506.554 605.537 506.212 602.743 506.696C599.948 507.18 597.355 508.469 595.281 510.406C591.273 514.322 589.602 520.94 591.04 527.201C592.3 532.686 595.653 537.524 597.689 542.814C599.724 548.103 600.04 554.905 596.131 557.794C591.414 561.28 584.235 556.537 580.55 550.797C576.865 545.058 574.749 538.109 570.089 533.282C564.59 527.586 555.981 526.251 550.318 530.216C544.655 534.182 542.49 543.063 545.345 550.612C547.679 556.784 553.026 563.028 551.171 568.841C549.211 574.984 540.635 574.206 535.462 569.864C530.289 565.523 526.854 558.984 521.744 554.545C516.554 550.037 509.777 548.061 503.827 549.323C500.809 550.024 498.016 551.474 495.706 553.541C493.395 555.607 491.642 558.223 490.608 561.146" fill="#E6E6E6"/>
<path d="M609.932 514.192L594.659 521.295C592.364 522.43 589.76 522.781 587.246 522.296C585.029 521.771 583.53 520.414 583.137 518.571L579.583 501.957C578.912 498.822 581.505 495.114 585.748 493.141L594.183 489.218C598.426 487.245 602.93 487.652 604.89 490.187L615.284 503.62C616.436 505.11 616.506 507.131 615.477 509.166C614.227 511.403 612.279 513.168 609.932 514.192Z" fill="#3F3D56"/>
<path d="M136.356 207.117C150.714 167.78 173.121 131.878 202.141 101.71C226.763 76.1247 265.082 77.1878 265.082 77.1878L265.301 76.9159C274.524 65.5318 286.9 57.1274 300.876 52.7571C314.852 48.3868 329.806 48.2451 343.863 52.35C347.516 53.3994 350.327 53.8646 351.663 53.3972C376.031 44.8605 374.886 25.5925 395.909 10.0703C432.721 -17.1081 554.82 14.0242 572.037 64.0358C585.991 104.569 648.279 124.215 671.55 155.22C675.189 160.068 678.759 164.972 682.26 169.932C683.902 172.237 685.526 174.558 687.131 176.898C703.618 200.798 718.409 225.827 731.395 251.8C739.91 268.77 747.311 286.278 753.55 304.211C777.819 375.228 769.52 428.139 702.602 415.068C694.681 413.516 686.95 412.128 679.409 410.903C668.49 409.12 657.951 407.654 647.793 406.506C634.114 404.949 621.101 403.928 608.752 403.445C604.6 403.278 600.524 403.166 596.525 403.109C537.387 402.288 493.52 413.429 460.102 430.724C454.437 433.649 449.068 436.742 443.997 440.005C436.25 444.962 428.853 450.447 421.859 456.42C412.18 464.735 403.255 473.889 395.187 483.777L394.743 484.32C355.656 532.179 342.793 585.16 315.603 594.489C199.376 634.372 125.867 489.793 118.329 348.363C117.948 341.236 117.738 334.129 117.698 327.043C117.674 323.876 117.69 320.717 117.745 317.567C117.864 309.347 118.226 301.181 118.832 293.113C119.059 290.029 119.321 286.961 119.62 283.909C119.949 280.618 120.307 277.346 120.721 274.095C123.678 250.265 128.851 227.593 136.356 207.117Z" fill="#202245"/>
<path d="M496.602 284.93C487.32 289.256 487.167 308.632 490.077 314.91L495.352 326.273L528.974 310.637L523.699 299.273C520.783 292.998 505.891 280.619 496.602 284.93Z" fill="#101123"/>
<path d="M406.252 448.08C405.66 448.08 405.077 447.937 404.553 447.663C404.028 447.39 403.577 446.993 403.238 446.508C402.899 446.023 402.682 445.463 402.605 444.876C402.528 444.288 402.594 443.691 402.797 443.135C402.962 442.681 403.215 442.263 403.542 441.907C403.868 441.551 404.263 441.264 404.701 441.062L578.333 360.311C578.77 360.107 579.244 359.992 579.726 359.971C580.208 359.951 580.69 360.026 581.143 360.191C581.597 360.357 582.013 360.611 582.369 360.938C582.724 361.265 583.012 361.658 583.215 362.097C583.625 362.982 583.667 363.993 583.332 364.909C582.998 365.826 582.314 366.572 581.43 366.984H581.43L407.799 447.734C407.314 447.961 406.786 448.079 406.252 448.08Z" fill="#101123"/>
<path d="M542.071 317.884L492.439 340.966L570.294 508.702L619.926 485.619L542.071 317.884Z" fill="#F80F0F"/>
<path d="M355.756 106.733C346.474 111.059 346.321 130.434 349.232 136.712L354.506 148.076L388.128 132.44L382.853 121.076C379.937 114.801 365.045 102.422 355.756 106.733Z" fill="#101123"/>
<path d="M563.732 533.475L548.46 540.578C546.164 541.713 543.56 542.064 541.046 541.578C538.829 541.053 537.331 539.696 536.937 537.854L533.383 521.239C532.712 518.105 535.305 514.397 539.549 512.423L547.983 508.501C552.227 506.527 556.73 506.935 558.691 509.47L569.084 522.903C570.237 524.393 570.306 526.414 569.277 528.449C568.027 530.685 566.079 532.451 563.732 533.475Z" fill="#3F3D56"/>
<path d="M516.776 556.795L501.503 563.898C499.208 565.032 496.604 565.384 494.09 564.898C491.873 564.373 490.374 563.016 489.981 561.174L486.427 544.559C485.756 541.425 488.349 537.717 492.593 535.743L501.027 531.821C505.27 529.847 509.774 530.255 511.734 532.789L522.128 546.223C523.28 547.712 523.35 549.734 522.321 551.768C521.071 554.005 519.123 555.77 516.776 556.795Z" fill="#3F3D56"/>
<path d="M414.468 168.219L364.836 191.301L522.212 530.359L571.844 507.277L414.468 168.219Z" fill="#F80F0F"/>
<path d="M465.966 343.003L460.397 330.736L463.603 329.256L469.155 341.483L549.552 519.918L546.35 521.408" fill="#3F3D56"/>
<path d="M528.78 332.807L523.21 320.54L526.416 319.06L531.969 331.287L612.366 509.722L609.163 511.212" fill="#3F3D56"/>
<path d="M437.895 195.353L370.645 226.628C366.364 219.961 353.457 185.793 356.355 175.656L354.18 165.989L400.614 144.394L406.829 152.047C416.055 154.88 434.016 186.973 437.895 195.353Z" fill="#E6E6E6"/>
<path d="M402.554 144.807L354.637 167.092C352.868 167.915 350.985 167.612 350.43 166.417C350.35 166.244 350.301 166.06 350.284 165.87L347.804 139.388C347.698 138.254 348.667 136.969 350.148 136.28L381.925 121.502C383.406 120.813 385.012 120.9 385.809 121.713L404.429 140.689C405.382 141.66 404.864 143.321 403.274 144.4C403.045 144.555 402.805 144.691 402.554 144.807Z" fill="#E6E6E6"/>
<path d="M440.137 352.286C439.619 352.288 439.102 352.227 438.598 352.105C437.887 351.957 437.219 351.649 436.646 351.203C436.073 350.758 435.609 350.187 435.29 349.534L405.995 286.419C404.782 283.806 406.41 280.464 409.623 278.97L452.52 259.02C455.733 257.525 459.334 258.436 460.547 261.048L489.842 324.164C490.135 324.829 490.272 325.552 490.242 326.278C490.213 327.004 490.017 327.713 489.672 328.352C488.919 329.798 487.701 330.947 486.213 331.613L443.317 351.562C442.322 352.032 441.237 352.279 440.137 352.286Z" fill="#101123"/>
<path d="M446.004 361.84L396.372 384.923L474.227 552.658L523.859 529.576L446.004 361.84Z" fill="#F80F0F"/>
<path d="M384.858 147.574L370.303 154.343C367.495 155.649 363.705 153.473 361.858 149.492C360.01 145.511 360.792 141.208 363.6 139.902L378.155 133.133C380.964 131.827 384.753 134.003 386.601 137.984C388.449 141.965 387.667 146.268 384.858 147.574Z" fill="#101123"/>
<path d="M401.504 328.436C392.222 332.762 392.069 352.137 394.979 358.415L400.254 369.779L433.875 354.143L428.601 342.779C425.685 336.504 410.793 324.125 401.504 328.436Z" fill="#101123"/>
<path d="M247.316 289.76C244.038 291.947 240.683 286.743 244.024 284.654C247.302 282.467 250.657 287.671 247.316 289.76Z" fill="#E6E6E6"/>
<path d="M588.546 214.99C585.267 217.176 581.912 211.972 585.253 209.883C588.531 207.697 591.887 212.9 588.546 214.99Z" fill="#E6E6E6"/>
<path d="M355.966 274.466C352.688 276.653 349.333 271.449 352.674 269.36C355.952 267.173 359.307 272.377 355.966 274.466Z" fill="#E6E6E6"/>
<path d="M247.316 478.386C244.038 480.572 240.683 475.369 244.024 473.279C247.302 471.093 250.657 476.297 247.316 478.386Z" fill="#E6E6E6"/>
<path d="M414.535 52.7033C411.257 54.8897 407.902 49.686 411.243 47.5967C414.521 45.4105 417.876 50.6142 414.535 52.7033Z" fill="#E6E6E6"/>
<path d="M253.258 152.964C249.98 155.15 246.624 149.947 249.966 147.857C253.244 145.671 256.599 150.875 253.258 152.964Z" fill="#E6E6E6"/>
<path d="M485.224 124.221L483.139 123.763L483.595 121.675L482.205 121.37L481.748 123.458L479.662 123.001L479.357 124.393L481.443 124.851L480.986 126.938L482.377 127.243L482.834 125.155L484.92 125.613L485.224 124.221Z" fill="#E6E6E6"/>
<path d="M145.61 298.214L143.524 297.756L143.981 295.669L142.591 295.363L142.133 297.451L140.047 296.994L139.742 298.386L141.828 298.844L141.372 300.932L142.762 301.236L143.22 299.149L145.305 299.606L145.61 298.214Z" fill="#E6E6E6"/>
<path d="M573.325 386.969C571.589 387.774 569.605 387.856 567.809 387.199C566.012 386.542 564.549 385.198 563.741 383.462L555.157 364.969C554.354 363.232 554.272 361.247 554.93 359.45C555.587 357.653 556.931 356.19 558.664 355.384C560.398 354.578 562.381 354.493 564.177 355.149C565.974 355.805 567.436 357.148 568.244 358.883L576.828 377.376C577.632 379.113 577.715 381.099 577.058 382.897C576.401 384.696 575.059 386.16 573.325 386.969Z" fill="#101123"/>
<path d="M427.326 454.942C425.59 455.747 423.606 455.83 421.81 455.172C420.013 454.515 418.551 453.171 417.743 451.435L409.159 432.942C408.355 431.205 408.273 429.22 408.931 427.423C409.588 425.626 410.932 424.164 412.666 423.357C414.4 422.551 416.383 422.466 418.179 423.122C419.975 423.778 421.438 425.121 422.245 426.856L430.829 445.349C431.633 447.087 431.716 449.072 431.059 450.871C430.402 452.669 429.06 454.133 427.326 454.942Z" fill="#101123"/>
<path d="M560.101 346.563L502.546 373.331C498.881 367.624 487.835 338.382 490.315 329.705L491.533 320L525.899 303.123L533.514 309.499C544.243 305.868 560.014 332.481 560.101 346.563Z" fill="#E6E6E6"/>
<path d="M533.38 344.707L518.825 351.476C516.017 352.782 511.743 349.562 509.3 344.299C506.857 339.035 507.155 333.689 509.963 332.383L524.518 325.614C527.327 324.308 531.6 327.528 534.043 332.791C536.486 338.055 536.189 343.401 533.38 344.707Z" fill="#101123"/>
<path d="M409.943 379.538L404.374 367.272L407.58 365.791L413.132 378.019L493.529 556.454L490.327 557.944" fill="#3F3D56"/>
<path d="M465.003 390.069L407.448 416.836C398.957 412.448 385.98 383.732 395.217 373.211L396.435 363.505L430.801 346.628L438.416 353.005C446.312 355.43 461.684 382.897 465.003 390.069Z" fill="#E6E6E6"/>
<path d="M437.098 385.661L422.543 392.43C419.734 393.736 415.726 391.088 413.61 386.529C411.493 381.969 412.056 377.195 414.865 375.889L429.42 369.12C432.229 367.814 436.237 370.461 438.353 375.021C440.469 379.581 439.906 384.355 437.098 385.661Z" fill="#101123"/>
<path d="M145.397 261.565C193.683 261.565 232.827 222.383 232.827 174.05C232.827 125.716 193.683 86.5342 145.397 86.5342C97.1114 86.5342 57.9679 125.716 57.9679 174.05C57.9679 222.383 97.1114 261.565 145.397 261.565Z" fill="#FF6584"/>
<path opacity="0.3" d="M503.87 265.201L557.001 109.875L498.66 263.342C498.372 263.706 498.174 264.134 498.084 264.59C497.993 265.046 498.013 265.517 498.141 265.964C498.269 266.411 498.501 266.821 498.819 267.16C499.137 267.499 499.531 267.757 499.968 267.913C500.406 268.069 500.874 268.119 501.334 268.057C501.795 267.996 502.234 267.826 502.615 267.561C502.997 267.296 503.31 266.943 503.528 266.533C503.746 266.123 503.863 265.666 503.87 265.201H503.87Z" fill="#F0F0F0"/>
<path d="M639.304 172.616C628.904 176.076 617.373 179.475 604.713 182.813C539.23 200.071 451.457 213.532 357.563 220.719C263.67 227.906 174.872 227.958 107.529 220.867C74.7239 217.413 48.7771 212.444 30.4095 206.099C10.9633 199.382 0.745227 191.288 0.0387631 182.042C-1.33697 164.029 34.1724 148.175 64.2035 138.048L65.0168 140.463C23.7762 154.371 1.60188 169.069 2.57821 181.848C3.82115 198.124 42.1713 211.421 107.795 218.332C174.99 225.407 263.624 225.353 357.369 218.178C451.114 211.002 538.726 197.567 604.065 180.348C667.875 163.533 703.761 144.552 702.517 128.276C701.485 114.762 674.873 103.202 627.584 95.723L627.982 93.2054C662.343 98.6396 703.606 109.101 705.057 128.081C705.763 137.327 696.893 146.882 678.693 156.481C668.318 161.952 655.136 167.35 639.304 172.616Z" fill="#3F3D56"/>
<path d="M664.995 327.834C670.012 327.834 674.08 323.763 674.08 318.741C674.08 313.718 670.012 309.647 664.995 309.647C659.978 309.647 655.911 313.718 655.911 318.741C655.911 323.763 659.978 327.834 664.995 327.834Z" fill="#FF6584"/>
<path d="M722.715 574.237C727.733 574.237 731.8 570.166 731.8 565.144C731.8 560.122 727.733 556.05 722.715 556.05C717.698 556.05 713.631 560.122 713.631 565.144C713.631 570.166 717.698 574.237 722.715 574.237Z" fill="#F2F2F2"/>
<path d="M412.892 629.605C422.674 629.605 430.604 621.667 430.604 611.875C430.604 602.084 422.674 594.146 412.892 594.146C403.111 594.146 395.181 602.084 395.181 611.875C395.181 621.667 403.111 629.605 412.892 629.605Z" fill="#F2F2F2"/>
<path d="M277.928 394.958C282.946 394.958 287.013 390.886 287.013 385.864C287.013 380.842 282.946 376.771 277.928 376.771C272.911 376.771 268.844 380.842 268.844 385.864C268.844 390.886 272.911 394.958 277.928 394.958Z" fill="#3F3D56"/>
<path d="M583.338 406.793L622.534 416.949L646.573 464.214L605.931 465.81L583.338 406.793Z" fill="#E6E6E6"/>
<path d="M492.869 338.655L514.441 360.26L569.231 478.835L559.143 487.559L492.869 338.655Z" fill="#CCCCCC"/>
<path d="M445.964 358.24L447.656 388.739L499.37 508.69L512.592 506.986L445.964 358.24Z" fill="#CCCCCC"/>
<path d="M444.552 481.452L423.442 516.035L439.004 566.734L469.318 539.59L444.552 481.452Z" fill="#E6E6E6"/>
<path d="M631.024 502.703C620.064 502.703 608.051 502.288 594.986 501.459C527.407 497.163 439.873 482.228 348.506 459.407C257.14 436.585 172.857 408.602 111.185 380.614C81.1432 366.979 58.0859 354.073 42.6549 342.253C26.3174 329.74 19.1712 318.833 21.4138 309.836C25.7836 292.309 64.4758 288.474 96.1652 288.344L96.1759 290.893C52.6581 291.071 26.9847 298.018 23.8849 310.454C19.9363 326.291 52.1396 351.017 112.237 378.292C173.773 406.219 257.901 434.148 349.123 456.934C440.344 479.719 527.718 494.628 595.148 498.915C660.999 503.102 701.033 496.419 704.982 480.581C708.26 467.431 686.648 448.059 644.129 426.033L645.3 423.77C676.195 439.774 712.056 462.728 707.453 481.198C705.209 490.195 693.782 496.462 673.487 499.825C661.917 501.742 647.707 502.703 631.024 502.703Z" fill="#3F3D56"/>
</g>
<defs>
<clipPath id="clip0_84:262">
<rect width="766" height="702" fill="white"/>
</clipPath>
</defs>
</svg>
