<svg width="68" height="70" viewBox="0 0 68 70" fill="none" xmlns="http://www.w3.org/2000/svg">
<path d="M0.0910714 10.0308C0.0910714 4.95779 4.15893 0.874976 9.16786 0.874976C13.7214 0.874976 17.4402 4.2113 18.1536 8.52263C23.1018 7.36482 28.3384 8.61404 32.8009 13.0929L26.0768 19.8418C22.9652 16.7187 19.6107 17.3586 17.6679 19.3086C15.4973 21.4871 15.4973 25.0824 17.6679 27.2609L32.7705 42.4191L26.092 49.1679C12.7804 35.8836 18.5482 41.5965 10.9438 33.9793C6.87589 29.9422 5.63125 24.1074 7.17946 18.9125C3.09643 18.0289 0.0910714 14.3879 0.0910714 10.0308ZM19.7473 27.7637L26.4714 34.5125C27.9893 32.989 40.0866 20.8472 41.6045 19.3086C43.775 17.1301 47.3116 17.1301 49.4821 19.3086C51.425 21.2586 52.0625 24.6406 48.9509 27.7484L55.6295 34.4972C60.3652 29.7441 61.4732 24.1988 60.0161 19.0801C64.4482 18.4554 67.8937 14.6316 67.8937 10.0156C67.8937 4.95779 63.8259 0.859741 58.817 0.859741C54.2179 0.859741 50.408 4.28748 49.7857 8.72068C44.6554 7.21248 38.9027 8.49216 34.8652 12.5445C32.0875 15.4543 24.0732 23.4371 19.7473 27.7637ZM60.1679 50.9504C61.4125 45.9687 60.0312 40.5148 56.1759 36.6453C54.3848 34.7867 56.9348 37.3613 41.0732 21.4566L34.3491 28.2054L49.4821 43.3941C51.6527 45.5726 51.6527 49.1222 49.4821 51.3008C47.5393 53.2508 44.1696 53.8906 41.0732 50.7676L34.3946 57.5164C38.5839 62.1172 44.7161 63.4273 49.983 61.782C50.8179 65.9562 54.4911 69.1097 58.9232 69.1097C63.9321 69.1097 68 65.0269 68 59.9539C68 55.3531 64.5848 51.575 60.1679 50.9504ZM47.3723 42.8609L40.6938 36.1121C27.4884 49.2746 33.0438 43.7902 25.5607 51.316C23.3902 53.4945 19.8536 53.4945 17.683 51.316C15.6946 49.2746 15.1179 45.9383 18.1687 42.8762L11.4902 36.1273C6.90625 40.7281 5.72232 46.0601 7.0125 51.1027C2.95982 52.0168 0 55.6578 0 59.9691C0 65.0422 4.06786 69.125 9.07679 69.125C13.4179 69.125 17.0455 66.1086 17.9714 62.0105C22.9348 63.2597 28.3688 61.9191 32.2696 58.0496C37.142 53.1746 34.1214 56.1605 47.3723 42.8609Z" fill="#101123"/>
</svg>
