<svg width="76" height="76" viewBox="0 0 76 76" fill="none" xmlns="http://www.w3.org/2000/svg">
<path d="M38 0.21875C17.1746 0.21875 0.21875 17.1594 0.21875 38C0.21875 58.8254 17.1746 75.7812 38 75.7812C58.8254 75.7812 75.7812 58.8254 75.7812 38C75.7812 17.1594 58.8254 0.21875 38 0.21875ZM4.02734 38C4.02734 33.0793 5.07852 28.4023 6.96758 24.1824L23.177 68.5754C11.8426 63.0605 4.02734 51.4367 4.02734 38ZM38 71.9727C34.6637 71.9727 31.4492 71.4852 28.4023 70.5863L38.5941 40.9707L49.0297 69.5809C49.1059 69.7484 49.182 69.9008 49.2734 70.0531C45.7543 71.2871 41.9609 71.9727 38 71.9727ZM42.677 22.0801C44.7184 21.9734 46.5617 21.7602 46.5617 21.7602C48.3898 21.5469 48.1766 18.8504 46.3484 18.957C46.3484 18.957 40.8488 19.3836 37.2992 19.3836C33.9629 19.3836 28.3566 18.957 28.3566 18.957C26.5285 18.8504 26.3152 21.6535 28.1434 21.7602C28.1434 21.7602 29.8801 21.9734 31.7082 22.0801L36.9945 36.5832L29.5602 58.8711L17.1898 22.0801C19.2313 21.9734 21.0746 21.7602 21.0746 21.7602C22.9027 21.5469 22.6895 18.8504 20.8613 18.957C20.8613 18.957 15.3617 19.3836 11.8121 19.3836C11.1723 19.3836 10.4258 19.3684 9.61836 19.3379C15.6969 10.1211 26.1324 4.02734 38 4.02734C46.8359 4.02734 54.8949 7.40938 60.943 12.9395C60.7906 12.9242 60.6535 12.909 60.5012 12.909C57.1648 12.909 54.8035 15.8187 54.8035 18.9418C54.8035 21.7449 56.4184 24.1062 58.1398 26.9094C59.4348 29.1641 60.943 32.0738 60.943 36.2785C60.943 39.1883 59.8309 42.5551 58.3531 47.2625L54.9711 58.5816L42.677 22.0801ZM55.0777 67.3566L65.4523 37.3602C67.3871 32.5156 68.0422 28.6461 68.0422 25.1879C68.0422 23.9387 67.966 22.7809 67.8137 21.6992C70.4645 26.5438 71.9727 32.0891 71.9727 38C71.9727 50.5379 65.1781 61.4762 55.0777 67.3566Z" fill="#101123"/>
</svg>
