<svg width="60" height="69" viewBox="0 0 60 69" fill="none" xmlns="http://www.w3.org/2000/svg">
<path d="M44.6738 12.4738C41.2918 10.341 38.0469 9.5031 34.8172 7.37029C32.8367 6.02966 30.0488 2.79998 27.7332 0.012085C27.3219 4.47576 25.9813 6.28865 24.3816 7.5531C21.1367 10.1429 19.0801 10.9351 16.2313 12.4738C13.8242 13.7383 0.875 22.6504 0.875 39.2558C0.875 55.8918 14.8602 68.125 30.3992 68.125C45.8926 68.125 59.375 56.8515 59.375 39.789C59.375 22.6808 46.7305 13.7383 44.6738 12.4738ZM45.0547 62.0769C41.9926 65.139 31.3285 66.4492 27.2762 62.7168C26.5449 61.9855 27.3219 60.8887 28.2664 60.8887C28.2664 60.8887 30.8562 62.9148 36.1121 62.9148C40.2254 62.9148 43.1199 61.7418 44.4148 60.782C45.3441 60.0812 45.6945 61.4371 45.0547 62.0769ZM36.752 54.0637C38.0773 53.5152 41.1699 53.4847 42.3582 54.2617C42.9828 54.6883 44.8109 57.1258 43.3027 57.8722C42.023 58.5121 43.1199 55.4804 39.2656 55.4804C37.0262 55.4804 36.2949 56.2726 35.198 57.1562C34.1316 58.0703 33.7051 58.375 33.3395 57.8722C32.4254 56.623 35.7617 54.475 36.752 54.0637ZM50.8438 56.6992C48.5281 56.5469 43.9121 49.2648 40.9414 49.1582C36.234 49.0211 25.0824 61.4523 16.3684 55.5566C10.4574 51.5043 14.1441 39.591 24.2598 39.5301C31.8008 39.4539 37.0262 46.9949 40.7891 46.9187C44.034 46.873 50.2039 40.5508 53.2508 40.5508C60.6699 40.5508 56.8004 57.2019 50.8438 56.6992Z" fill="#101123"/>
</svg>
