<svg width="68" height="78" viewBox="0 0 68 78" fill="none" xmlns="http://www.w3.org/2000/svg">
<path d="M33.9131 77.3906C32.8988 77.3906 31.8693 77.1164 30.976 76.5984L21.6348 71.0378C20.2419 70.2457 20.9232 69.9714 21.3774 69.8191C23.2396 69.164 23.6181 69.0269 25.6014 67.8843C25.8134 67.7625 26.0859 67.8082 26.2978 67.9453L33.4741 72.2261C33.7315 72.3785 34.0948 72.3785 34.3371 72.2261L62.3002 55.9863C62.5576 55.8339 62.7241 55.5293 62.7241 55.2246V22.7449C62.7241 22.425 62.5575 22.1355 62.285 21.9679L34.3371 5.74331C34.0797 5.59097 33.7315 5.59097 33.4741 5.74331L5.54125 21.9832C5.26873 22.1355 5.1022 22.4402 5.1022 22.7601V55.2246C5.1022 55.5293 5.26873 55.8339 5.54125 55.971L13.202 60.4195C17.3654 62.5066 19.9089 60.0539 19.9089 57.5707V25.5175C19.9089 25.0605 20.2722 24.7101 20.7264 24.7101H24.2691C24.7082 24.7101 25.0867 25.0605 25.0867 25.5175V57.5859C25.0867 63.1617 22.0587 66.3609 16.8052 66.3609C15.1853 66.3609 13.9135 66.3609 10.3708 64.5937L3.04319 60.3433C1.22642 59.2921 0.106079 57.3269 0.106079 55.2093V22.7449C0.106079 20.6425 1.22642 18.6621 3.04319 17.6109L30.976 1.37104C32.7474 0.365576 35.094 0.365576 36.8503 1.37104L64.8134 17.6261C66.6301 18.6773 67.7505 20.6425 67.7505 22.7601V55.2246C67.7505 57.3269 66.6301 59.2921 64.8134 60.3585L36.8503 76.5984C35.957 77.1164 34.9426 77.3906 33.9131 77.3906ZM56.4865 45.3832C56.4865 39.3046 52.3988 37.6898 43.8145 36.5472C35.1243 35.3894 34.2462 34.7953 34.2462 32.7539C34.2462 31.0628 34.9881 28.8082 41.4225 28.8082C47.1604 28.8082 49.28 30.0574 50.1581 33.9574C50.2338 34.323 50.5669 34.5972 50.9454 34.5972H54.5789C54.806 34.5972 55.018 34.5058 55.1693 34.3382C55.3207 34.1707 55.3964 33.9421 55.3813 33.7136C54.8211 26.9953 50.3852 23.8722 41.4225 23.8722C33.4438 23.8722 28.6899 27.2542 28.6899 32.9367C28.6899 39.0914 33.4287 40.7976 41.0742 41.5593C50.2338 42.4582 50.9454 43.814 50.9454 45.6269C50.9454 48.7652 48.4322 50.1058 42.5428 50.1058C35.1395 50.1058 33.5195 48.232 32.9745 44.53C32.9139 44.1339 32.5808 43.8445 32.1721 43.8445H28.5537C28.0995 43.8445 27.7513 44.2101 27.7513 44.6519C27.7513 49.3898 30.3099 55.0417 42.5579 55.0417C51.3996 55.0265 56.4865 51.5074 56.4865 45.3832Z" fill="#101123"/>
</svg>
