<svg width="69" height="70" viewBox="0 0 69 70" fill="none" xmlns="http://www.w3.org/2000/svg">
<path d="M67.5638 26.5449C66.3809 21.8375 64.138 18.2878 59.3603 18.2878H53.2V25.5089C53.2 31.1152 48.4069 35.8378 42.9379 35.8378H26.5309C22.045 35.8378 18.3273 39.6464 18.3273 44.1101V59.6187C18.3273 64.0367 22.1987 66.6265 26.5309 67.891C31.7233 69.3992 36.7161 69.6734 42.9379 67.891C47.0704 66.7027 51.1414 64.3109 51.1414 59.6187V53.4183H34.7497V51.3464H59.3603C64.138 51.3464 65.9047 48.0406 67.5638 43.0894C69.2844 37.9859 69.2076 33.0804 67.5638 26.5449ZM43.9672 57.5468C45.6724 57.5468 47.055 58.9332 47.055 60.6394C47.055 62.3609 45.6724 63.7472 43.9672 63.7472C42.2773 63.7472 40.8793 62.3457 40.8793 60.6394C40.8947 58.9179 42.2773 57.5468 43.9672 57.5468ZM25.7781 33.7964H42.1851C46.7478 33.7964 50.3887 30.064 50.3887 25.5242V10.0003C50.3887 5.58238 46.6402 2.27652 42.1851 1.53003C36.6854 0.631203 30.7094 0.676906 25.7781 1.54527C18.8343 2.76402 17.5746 5.30816 17.5746 10.0156V16.216H33.997V18.2878H11.4143C6.63655 18.2878 2.45798 21.1367 1.15217 26.5449C-0.353342 32.7453 -0.414792 36.6148 1.15217 43.0894C2.31972 47.9035 5.10031 51.3464 9.87802 51.3464H15.516V43.9121C15.516 38.5343 20.2015 33.7964 25.7781 33.7964ZM24.7488 12.0722C23.0436 12.0722 21.661 10.6859 21.661 8.97964C21.6763 7.25816 23.0436 5.87183 24.7488 5.87183C26.4387 5.87183 27.8367 7.27339 27.8367 8.97964C27.8367 10.6859 26.454 12.0722 24.7488 12.0722Z" fill="#101123"/>
</svg>
