<svg width="78" height="70" viewBox="0 0 78 70" fill="none" xmlns="http://www.w3.org/2000/svg">
<path d="M63.7102 22.9952C62.8875 22.721 62.0648 22.462 61.2422 22.2183C61.3793 21.6546 61.5012 21.0909 61.623 20.5273C63.4969 11.4476 62.2629 4.15032 58.1039 1.74329C54.0973 -0.557105 47.5617 1.83469 40.95 7.59329C40.2949 8.15696 39.6551 8.7511 39.0457 9.34524C38.6344 8.94914 38.2078 8.55305 37.7812 8.17219C30.8496 2.0175 23.9027 -0.572339 19.7438 1.84993C15.7523 4.16555 14.5641 11.0363 16.2398 19.6284C16.4074 20.4816 16.5902 21.3195 16.8035 22.1726C15.8285 22.4468 14.8687 22.7515 13.9699 23.0714C5.83476 25.8898 0 30.3382 0 34.939C0 39.6921 6.21563 44.4605 14.6707 47.355C15.3563 47.5835 16.0418 47.812 16.7426 48.0101C16.5141 48.9241 16.316 49.823 16.1332 50.7523C14.5336 59.2073 15.7828 65.9105 19.7742 68.2109C23.8875 70.5874 30.8039 68.1499 37.5375 62.2542C38.0707 61.782 38.6039 61.2945 39.1371 60.7765C39.8074 61.4316 40.5082 62.0562 41.209 62.6656C47.7293 68.2718 54.1734 70.5417 58.1496 68.2413C62.2629 65.8648 63.6035 58.6589 61.8668 49.8839C61.7297 49.2136 61.5773 48.5281 61.4098 47.8273C61.8973 47.6902 62.3695 47.5378 62.8418 47.3855C71.632 44.4757 78 39.7683 78 34.939C78 30.323 71.9977 25.8441 63.7102 22.9952ZM43.098 10.0613C48.7652 5.12532 54.0516 3.19055 56.4586 4.57688C59.0332 6.05461 60.0234 12.0265 58.4086 19.8722C58.302 20.3902 58.1953 20.8929 58.0582 21.3956C54.6762 20.6339 51.2484 20.0855 47.8055 19.7808C45.825 16.9472 43.6617 14.2355 41.3156 11.6913C41.9098 11.1277 42.4887 10.5945 43.098 10.0613ZM25.4719 42.8456C26.2488 44.171 27.041 45.4964 27.8789 46.7913C25.5023 46.5323 23.141 46.1515 20.8102 45.6488C21.4805 43.455 22.3184 41.1851 23.2934 38.8695C23.9941 40.2101 24.7102 41.5355 25.4719 42.8456ZM20.8559 24.5187C23.0496 24.0312 25.3805 23.6351 27.8027 23.3304C26.9953 24.5948 26.2031 25.8898 25.4566 27.1999C24.7102 28.4948 23.9789 29.8202 23.2934 31.1609C22.3336 28.8909 21.5262 26.6667 20.8559 24.5187ZM25.0301 35.0152C26.0355 32.9128 27.1324 30.8562 28.2902 28.83C29.448 26.8038 30.6973 24.8386 32.0074 22.9038C34.2926 22.7363 36.6234 22.6448 39 22.6448C41.3766 22.6448 43.7227 22.7363 45.9926 22.9038C47.2875 24.8234 48.5215 26.7886 49.6945 28.7995C50.8676 30.8105 51.9645 32.8671 53.0004 34.9542C51.9797 37.0566 50.8828 39.1284 49.7098 41.1698C48.552 43.196 47.318 45.1613 46.023 47.1113C43.7531 47.2788 41.3918 47.355 39 47.355C36.6082 47.355 34.2926 47.2788 32.0531 47.1417C30.7277 45.207 29.4785 43.2265 28.3055 41.2003C27.1324 39.1741 26.0508 37.1175 25.0301 35.0152ZM52.5434 42.8152C53.3203 41.4745 54.0516 40.1187 54.7676 38.7476C55.7426 40.9566 56.5957 43.196 57.3422 45.4964C54.9809 46.0296 52.5891 46.4409 50.182 46.7152C51.0047 45.4355 51.7816 44.1253 52.5434 42.8152ZM54.7371 31.1609C54.0211 29.8202 53.2898 28.4796 52.5281 27.1695C51.7816 25.8745 51.0047 24.5948 50.1973 23.3304C52.65 23.6351 54.9961 24.0464 57.1898 24.5491C56.4891 26.8038 55.6664 28.9976 54.7371 31.1609ZM39.0305 14.0222C40.6301 15.7589 42.1383 17.587 43.5398 19.4761C40.5234 19.339 37.4918 19.339 34.4754 19.4761C35.9684 17.5109 37.507 15.6827 39.0305 14.0222ZM21.3586 4.68352C23.918 3.19055 29.6004 5.32336 35.5875 10.6249C35.9684 10.9601 36.3492 11.3257 36.7453 11.6913C34.384 14.2355 32.2055 16.9472 30.2098 19.7808C26.7668 20.0855 23.3543 20.6187 19.9723 21.3652C19.7742 20.5882 19.6066 19.796 19.4391 19.0038C18.007 11.6304 18.9516 6.06985 21.3586 4.68352ZM17.6262 44.8413C16.9863 44.6585 16.3617 44.4605 15.7371 44.2472C12.4922 43.2265 8.80547 41.6116 6.13945 39.4941C4.60078 38.4277 3.56484 36.7823 3.27539 34.939C3.27539 32.1511 8.08945 28.5863 15.0363 26.164C15.9047 25.8593 16.7883 25.5851 17.6719 25.3261C18.7078 28.632 19.957 31.8769 21.4043 35.0152C19.9418 38.1991 18.6773 41.4898 17.6262 44.8413ZM35.3895 59.771C32.8758 62.0714 29.966 63.8995 26.7973 65.1488C25.1062 65.9562 23.1562 66.0323 21.4195 65.3468C18.9973 63.9452 17.9918 58.5675 19.3629 51.3312C19.5305 50.4781 19.7133 49.6249 19.9266 48.787C23.3391 49.5183 26.782 50.021 30.2707 50.28C32.2816 53.1288 34.4906 55.8558 36.852 58.4152C36.3645 58.8874 35.877 59.3445 35.3895 59.771ZM39.1219 56.0691C37.568 54.3933 36.0141 52.5347 34.5059 50.539C35.9684 50.5999 37.4766 50.6304 39 50.6304C40.5691 50.6304 42.1078 50.5999 43.6312 50.5238C42.2297 52.4585 40.7215 54.3019 39.1219 56.0691ZM59.0332 60.6394C58.8961 62.498 57.982 64.2347 56.5195 65.4077C54.0973 66.8093 48.9328 64.9812 43.357 60.1976C42.7172 59.6491 42.0773 59.055 41.4223 58.4456C43.7531 55.871 45.9012 53.1441 47.8512 50.28C51.3398 49.9905 54.8133 49.4573 58.241 48.6804C58.3934 49.305 58.5305 49.9296 58.6523 50.539C59.3988 53.8296 59.5207 57.2573 59.0332 60.6394ZM61.8059 44.2624C61.3793 44.3995 60.9527 44.5366 60.5109 44.6585C59.4445 41.3374 58.1344 38.0925 56.6262 34.939C58.0887 31.8312 59.3227 28.632 60.3586 25.3566C61.1508 25.5851 61.9125 25.8288 62.6438 26.0726C69.743 28.5101 74.7246 32.1359 74.7246 34.9085C74.7246 37.8945 69.4078 41.7488 61.8059 44.2624ZM39 41.9773C42.8543 41.9773 45.9773 38.8542 45.9773 34.9999C45.9773 31.1456 42.8543 28.0226 39 28.0226C35.1457 28.0226 32.0227 31.1456 32.0227 34.9999C32.0227 38.8542 35.1457 41.9773 39 41.9773Z" fill="#101123"/>
</svg>
